<mxfile host="65bd71144e">
    <diagram id="_U-zam85fuSHyTI7UEU5" name="Parcours inscription Freelance">
        <mxGraphModel dx="2084" dy="1362" grid="0" gridSize="10" guides="1" tooltips="1" connect="1" arrows="1" fold="1" page="0" pageScale="1" pageWidth="827" pageHeight="1169" math="0" shadow="0">
            <root>
                <mxCell id="0"/>
                <mxCell id="1" parent="0"/>
                <mxCell id="14" value="Node" style="ellipse;shape=cloud;whiteSpace=wrap;html=1;fontColor=#000000;strokeColor=#000000;fillColor=#99FF99;" vertex="1" parent="1">
                    <mxGeometry x="673.5" y="735" width="68" height="50" as="geometry"/>
                </mxCell>
                <mxCell id="g_UKhMV2bHVW6zAszu1t-114" value="Node" style="ellipse;shape=cloud;whiteSpace=wrap;html=1;fontColor=#000000;strokeColor=#000000;fillColor=#99FF99;" parent="1" vertex="1">
                    <mxGeometry x="609" y="320" width="68" height="50" as="geometry"/>
                </mxCell>
                <mxCell id="g_UKhMV2bHVW6zAszu1t-70" value="Node" style="ellipse;shape=cloud;whiteSpace=wrap;html=1;fontColor=#000000;strokeColor=#000000;fillColor=#99FF99;" parent="1" vertex="1">
                    <mxGeometry x="92" y="560" width="68" height="50" as="geometry"/>
                </mxCell>
                <mxCell id="g_UKhMV2bHVW6zAszu1t-66" value="Node" style="ellipse;shape=cloud;whiteSpace=wrap;html=1;fontColor=#000000;strokeColor=#000000;fillColor=#99FF99;" parent="1" vertex="1">
                    <mxGeometry x="108" y="481" width="68" height="50" as="geometry"/>
                </mxCell>
                <mxCell id="g_UKhMV2bHVW6zAszu1t-60" value="Node" style="ellipse;shape=cloud;whiteSpace=wrap;html=1;fontColor=#000000;strokeColor=#000000;fillColor=#99FF99;" parent="1" vertex="1">
                    <mxGeometry x="180" y="187" width="68" height="50" as="geometry"/>
                </mxCell>
                <mxCell id="g_UKhMV2bHVW6zAszu1t-1" value="Loggin" style="swimlane;fontStyle=0;childLayout=stackLayout;horizontal=1;startSize=26;horizontalStack=0;resizeParent=1;resizeParentMax=0;resizeLast=0;collapsible=1;marginBottom=0;align=center;fontSize=14;fillColor=#e1d5e7;strokeColor=#9673a6;" parent="1" vertex="1">
                    <mxGeometry x="82" y="65" width="160" height="116" as="geometry"/>
                </mxCell>
                <mxCell id="g_UKhMV2bHVW6zAszu1t-2" value="Email" style="text;strokeColor=none;fillColor=none;spacingLeft=4;spacingRight=4;overflow=hidden;rotatable=0;points=[[0,0.5],[1,0.5]];portConstraint=eastwest;fontSize=12;" parent="g_UKhMV2bHVW6zAszu1t-1" vertex="1">
                    <mxGeometry y="26" width="160" height="30" as="geometry"/>
                </mxCell>
                <mxCell id="g_UKhMV2bHVW6zAszu1t-3" value="Mot de passe" style="text;strokeColor=none;fillColor=none;spacingLeft=4;spacingRight=4;overflow=hidden;rotatable=0;points=[[0,0.5],[1,0.5]];portConstraint=eastwest;fontSize=12;" parent="g_UKhMV2bHVW6zAszu1t-1" vertex="1">
                    <mxGeometry y="56" width="160" height="30" as="geometry"/>
                </mxCell>
                <mxCell id="g_UKhMV2bHVW6zAszu1t-4" value="Type de compte" style="text;strokeColor=none;fillColor=none;spacingLeft=4;spacingRight=4;overflow=hidden;rotatable=0;points=[[0,0.5],[1,0.5]];portConstraint=eastwest;fontSize=12;" parent="g_UKhMV2bHVW6zAszu1t-1" vertex="1">
                    <mxGeometry y="86" width="160" height="30" as="geometry"/>
                </mxCell>
                <mxCell id="g_UKhMV2bHVW6zAszu1t-5" value="Account" style="swimlane;fontStyle=0;childLayout=stackLayout;horizontal=1;startSize=26;horizontalStack=0;resizeParent=1;resizeParentMax=0;resizeLast=0;collapsible=1;marginBottom=0;align=center;fontSize=14;fillColor=#e1d5e7;strokeColor=#9673a6;" parent="1" vertex="1">
                    <mxGeometry x="382" y="177" width="160" height="356" as="geometry"/>
                </mxCell>
                <mxCell id="g_UKhMV2bHVW6zAszu1t-6" value="Nom" style="text;strokeColor=none;fillColor=none;spacingLeft=4;spacingRight=4;overflow=hidden;rotatable=0;points=[[0,0.5],[1,0.5]];portConstraint=eastwest;fontSize=12;" parent="g_UKhMV2bHVW6zAszu1t-5" vertex="1">
                    <mxGeometry y="26" width="160" height="30" as="geometry"/>
                </mxCell>
                <mxCell id="g_UKhMV2bHVW6zAszu1t-7" value="PrÃ©nom" style="text;strokeColor=none;fillColor=none;spacingLeft=4;spacingRight=4;overflow=hidden;rotatable=0;points=[[0,0.5],[1,0.5]];portConstraint=eastwest;fontSize=12;" parent="g_UKhMV2bHVW6zAszu1t-5" vertex="1">
                    <mxGeometry y="56" width="160" height="30" as="geometry"/>
                </mxCell>
                <mxCell id="g_UKhMV2bHVW6zAszu1t-8" value="Photo de profil" style="text;strokeColor=none;fillColor=none;spacingLeft=4;spacingRight=4;overflow=hidden;rotatable=0;points=[[0,0.5],[1,0.5]];portConstraint=eastwest;fontSize=12;" parent="g_UKhMV2bHVW6zAszu1t-5" vertex="1">
                    <mxGeometry y="86" width="160" height="30" as="geometry"/>
                </mxCell>
                <mxCell id="g_UKhMV2bHVW6zAszu1t-16" value="A propos" style="text;strokeColor=none;fillColor=none;spacingLeft=4;spacingRight=4;overflow=hidden;rotatable=0;points=[[0,0.5],[1,0.5]];portConstraint=eastwest;fontSize=12;" parent="g_UKhMV2bHVW6zAszu1t-5" vertex="1">
                    <mxGeometry y="116" width="160" height="30" as="geometry"/>
                </mxCell>
                <mxCell id="g_UKhMV2bHVW6zAszu1t-17" value="Siren" style="text;strokeColor=none;fillColor=none;spacingLeft=4;spacingRight=4;overflow=hidden;rotatable=0;points=[[0,0.5],[1,0.5]];portConstraint=eastwest;fontSize=12;" parent="g_UKhMV2bHVW6zAszu1t-5" vertex="1">
                    <mxGeometry y="146" width="160" height="30" as="geometry"/>
                </mxCell>
                <mxCell id="g_UKhMV2bHVW6zAszu1t-18" value="Moyenne = 0" style="text;strokeColor=none;fillColor=none;spacingLeft=4;spacingRight=4;overflow=hidden;rotatable=0;points=[[0,0.5],[1,0.5]];portConstraint=eastwest;fontSize=12;" parent="g_UKhMV2bHVW6zAszu1t-5" vertex="1">
                    <mxGeometry y="176" width="160" height="30" as="geometry"/>
                </mxCell>
                <mxCell id="g_UKhMV2bHVW6zAszu1t-23" value="Prix" style="text;strokeColor=none;fillColor=none;spacingLeft=4;spacingRight=4;overflow=hidden;rotatable=0;points=[[0,0.5],[1,0.5]];portConstraint=eastwest;fontSize=12;fontColor=#000000;" parent="g_UKhMV2bHVW6zAszu1t-5" vertex="1">
                    <mxGeometry y="206" width="160" height="30" as="geometry"/>
                </mxCell>
                <mxCell id="g_UKhMV2bHVW6zAszu1t-25" value="Langue" style="text;strokeColor=none;fillColor=none;spacingLeft=4;spacingRight=4;overflow=hidden;rotatable=0;points=[[0,0.5],[1,0.5]];portConstraint=eastwest;fontSize=12;fontColor=#000000;" parent="g_UKhMV2bHVW6zAszu1t-5" vertex="1">
                    <mxGeometry y="236" width="160" height="30" as="geometry"/>
                </mxCell>
                <mxCell id="g_UKhMV2bHVW6zAszu1t-26" value="id_loggin" style="text;strokeColor=none;fillColor=none;spacingLeft=4;spacingRight=4;overflow=hidden;rotatable=0;points=[[0,0.5],[1,0.5]];portConstraint=eastwest;fontSize=12;fontColor=#000000;" parent="g_UKhMV2bHVW6zAszu1t-5" vertex="1">
                    <mxGeometry y="266" width="160" height="30" as="geometry"/>
                </mxCell>
                <mxCell id="g_UKhMV2bHVW6zAszu1t-27" value="id_job" style="text;strokeColor=none;fillColor=none;spacingLeft=4;spacingRight=4;overflow=hidden;rotatable=0;points=[[0,0.5],[1,0.5]];portConstraint=eastwest;fontSize=12;fontColor=#000000;" parent="g_UKhMV2bHVW6zAszu1t-5" vertex="1">
                    <mxGeometry y="296" width="160" height="30" as="geometry"/>
                </mxCell>
                <mxCell id="g_UKhMV2bHVW6zAszu1t-19" value="id_location" style="text;strokeColor=none;fillColor=none;spacingLeft=4;spacingRight=4;overflow=hidden;rotatable=0;points=[[0,0.5],[1,0.5]];portConstraint=eastwest;fontSize=12;fontColor=#000000;" parent="g_UKhMV2bHVW6zAszu1t-5" vertex="1">
                    <mxGeometry y="326" width="160" height="30" as="geometry"/>
                </mxCell>
                <mxCell id="g_UKhMV2bHVW6zAszu1t-31" style="edgeStyle=orthogonalEdgeStyle;rounded=0;orthogonalLoop=1;jettySize=auto;html=1;fontColor=#FF3333;entryX=0;entryY=0.5;entryDx=0;entryDy=0;" parent="1" target="g_UKhMV2bHVW6zAszu1t-26" edge="1">
                    <mxGeometry relative="1" as="geometry">
                        <mxPoint x="307" y="454" as="targetPoint"/>
                        <mxPoint x="212" y="454" as="sourcePoint"/>
                        <Array as="points">
                            <mxPoint x="212" y="458"/>
                        </Array>
                    </mxGeometry>
                </mxCell>
                <mxCell id="g_UKhMV2bHVW6zAszu1t-15" value="Page 2" style="ellipse;shape=cloud;whiteSpace=wrap;html=1;align=center;fillColor=#e1d5e7;strokeColor=#9673a6;" parent="1" vertex="1">
                    <mxGeometry x="585" y="10" width="100" height="60" as="geometry"/>
                </mxCell>
                <mxCell id="g_UKhMV2bHVW6zAszu1t-20" value="required" style="text;strokeColor=none;fillColor=none;spacingLeft=4;spacingRight=4;overflow=hidden;rotatable=0;points=[[0,0.5],[1,0.5]];portConstraint=eastwest;fontSize=12;fontColor=#FF3333;fontStyle=1" parent="1" vertex="1">
                    <mxGeometry x="544" y="201" width="65" height="30" as="geometry"/>
                </mxCell>
                <mxCell id="g_UKhMV2bHVW6zAszu1t-21" value="required" style="text;strokeColor=none;fillColor=none;spacingLeft=4;spacingRight=4;overflow=hidden;rotatable=0;points=[[0,0.5],[1,0.5]];portConstraint=eastwest;fontSize=12;fontColor=#FF3333;fontStyle=1" parent="1" vertex="1">
                    <mxGeometry x="544" y="229" width="65" height="30" as="geometry"/>
                </mxCell>
                <mxCell id="g_UKhMV2bHVW6zAszu1t-22" value="required" style="text;strokeColor=none;fillColor=none;spacingLeft=4;spacingRight=4;overflow=hidden;rotatable=0;points=[[0,0.5],[1,0.5]];portConstraint=eastwest;fontSize=12;fontColor=#FF3333;fontStyle=1" parent="1" vertex="1">
                    <mxGeometry x="544" y="383" width="65" height="30" as="geometry"/>
                </mxCell>
                <mxCell id="g_UKhMV2bHVW6zAszu1t-24" value="required" style="text;strokeColor=none;fillColor=none;spacingLeft=4;spacingRight=4;overflow=hidden;rotatable=0;points=[[0,0.5],[1,0.5]];portConstraint=eastwest;fontSize=12;fontColor=#FF3333;fontStyle=1" parent="1" vertex="1">
                    <mxGeometry x="544" y="410" width="65" height="30" as="geometry"/>
                </mxCell>
                <mxCell id="g_UKhMV2bHVW6zAszu1t-90" style="edgeStyle=orthogonalEdgeStyle;rounded=0;orthogonalLoop=1;jettySize=auto;html=1;exitX=0.96;exitY=0.7;exitDx=0;exitDy=0;exitPerimeter=0;entryX=0.07;entryY=0.4;entryDx=0;entryDy=0;entryPerimeter=0;fontColor=#000000;" parent="1" source="g_UKhMV2bHVW6zAszu1t-28" target="g_UKhMV2bHVW6zAszu1t-15" edge="1">
                    <mxGeometry relative="1" as="geometry"/>
                </mxCell>
                <mxCell id="g_UKhMV2bHVW6zAszu1t-28" value="Page 1" style="ellipse;shape=cloud;whiteSpace=wrap;html=1;align=center;fillColor=#e1d5e7;strokeColor=#9673a6;" parent="1" vertex="1">
                    <mxGeometry x="116" y="-9" width="100" height="60" as="geometry"/>
                </mxCell>
                <mxCell id="g_UKhMV2bHVW6zAszu1t-36" value="&lt;span style=&quot;border-bottom: 1px dotted&quot;&gt;GET queryparams&lt;/span&gt;" style="ellipse;whiteSpace=wrap;html=1;align=center;fillColor=#d5e8d4;strokeColor=#82b366;fontStyle=1" parent="1" vertex="1">
                    <mxGeometry x="111" y="210" width="100" height="40" as="geometry"/>
                </mxCell>
                <mxCell id="g_UKhMV2bHVW6zAszu1t-39" value="" style="endArrow=classic;html=1;rounded=0;fontColor=#0000CC;exitX=0.494;exitY=1;exitDx=0;exitDy=0;exitPerimeter=0;entryX=0.5;entryY=0;entryDx=0;entryDy=0;" parent="1" source="g_UKhMV2bHVW6zAszu1t-4" target="g_UKhMV2bHVW6zAszu1t-36" edge="1">
                    <mxGeometry width="50" height="50" relative="1" as="geometry">
                        <mxPoint x="799" y="302" as="sourcePoint"/>
                        <mxPoint x="849" y="252" as="targetPoint"/>
                    </mxGeometry>
                </mxCell>
                <mxCell id="g_UKhMV2bHVW6zAszu1t-41" value="" style="endArrow=classic;html=1;rounded=0;fontColor=#0000CC;exitX=0.5;exitY=1;exitDx=0;exitDy=0;entryX=0.5;entryY=0;entryDx=0;entryDy=0;" parent="1" source="g_UKhMV2bHVW6zAszu1t-36" target="g_UKhMV2bHVW6zAszu1t-53" edge="1">
                    <mxGeometry width="50" height="50" relative="1" as="geometry">
                        <mxPoint x="171.03999999999996" y="191" as="sourcePoint"/>
                        <mxPoint x="161" y="301" as="targetPoint"/>
                    </mxGeometry>
                </mxCell>
                <mxCell id="g_UKhMV2bHVW6zAszu1t-42" value="" style="endArrow=classic;html=1;rounded=0;fontColor=#0000CC;exitX=0.5;exitY=1;exitDx=0;exitDy=0;entryX=0.5;entryY=0;entryDx=0;entryDy=0;" parent="1" edge="1">
                    <mxGeometry width="50" height="50" relative="1" as="geometry">
                        <mxPoint x="161" y="351" as="sourcePoint"/>
                        <mxPoint x="162" y="429" as="targetPoint"/>
                    </mxGeometry>
                </mxCell>
                <mxCell id="g_UKhMV2bHVW6zAszu1t-46" value="" style="shape=actor;whiteSpace=wrap;html=1;fillColor=#e1d5e7;strokeColor=#9673a6;" parent="1" vertex="1">
                    <mxGeometry x="-97" y="93" width="40" height="60" as="geometry"/>
                </mxCell>
                <mxCell id="g_UKhMV2bHVW6zAszu1t-47" value="" style="shape=singleArrow;whiteSpace=wrap;html=1;fillColor=#000000;strokeColor=#000000;fontColor=#333333;" parent="1" vertex="1">
                    <mxGeometry x="-37" y="120.78" width="100" height="18" as="geometry"/>
                </mxCell>
                <mxCell id="g_UKhMV2bHVW6zAszu1t-48" value="&lt;b&gt;Postgree&lt;/b&gt;" style="strokeWidth=2;html=1;shape=mxgraph.flowchart.database;whiteSpace=wrap;fontColor=#333333;fillColor=#f5f5f5;strokeColor=#666666;" parent="1" vertex="1">
                    <mxGeometry x="-115" y="312" width="64" height="92" as="geometry"/>
                </mxCell>
                <mxCell id="g_UKhMV2bHVW6zAszu1t-53" value="&lt;font color=&quot;#000000&quot;&gt;Utilisateur n'existe pas&lt;/font&gt;" style="text;html=1;strokeColor=none;fillColor=none;align=center;verticalAlign=middle;whiteSpace=wrap;rounded=0;fontColor=#0000CC;" parent="1" vertex="1">
                    <mxGeometry x="126" y="312" width="70" height="39" as="geometry"/>
                </mxCell>
                <mxCell id="g_UKhMV2bHVW6zAszu1t-54" value="&lt;font color=&quot;#000000&quot;&gt;Utilisateur existe en base&lt;/font&gt;" style="text;html=1;strokeColor=none;fillColor=none;align=center;verticalAlign=middle;whiteSpace=wrap;rounded=0;fontColor=#0000CC;" parent="1" vertex="1">
                    <mxGeometry x="-27" y="210" width="90" height="36" as="geometry"/>
                </mxCell>
                <mxCell id="g_UKhMV2bHVW6zAszu1t-56" value="" style="endArrow=classic;html=1;rounded=0;fontColor=#000000;exitX=0.5;exitY=0;exitDx=0;exitDy=0;entryX=0;entryY=0.5;entryDx=0;entryDy=0;" parent="1" source="g_UKhMV2bHVW6zAszu1t-54" target="g_UKhMV2bHVW6zAszu1t-3" edge="1">
                    <mxGeometry width="50" height="50" relative="1" as="geometry">
                        <mxPoint x="799" y="279" as="sourcePoint"/>
                        <mxPoint x="849" y="229" as="targetPoint"/>
                    </mxGeometry>
                </mxCell>
                <mxCell id="g_UKhMV2bHVW6zAszu1t-57" value="&lt;font color=&quot;#000000&quot;&gt;&lt;b&gt;&lt;u&gt;return idLoggin&lt;/u&gt;&lt;/b&gt;&lt;/font&gt;" style="text;html=1;strokeColor=none;fillColor=none;align=center;verticalAlign=middle;whiteSpace=wrap;rounded=0;fontColor=#0000CC;" parent="1" vertex="1">
                    <mxGeometry x="240" y="427" width="92" height="39" as="geometry"/>
                </mxCell>
                <mxCell id="g_UKhMV2bHVW6zAszu1t-58" value="" style="endArrow=classic;html=1;rounded=0;fontColor=#000000;exitX=0;exitY=1;exitDx=0;exitDy=0;entryX=1;entryY=0.15;entryDx=0;entryDy=0;entryPerimeter=0;" parent="1" source="g_UKhMV2bHVW6zAszu1t-36" target="g_UKhMV2bHVW6zAszu1t-48" edge="1">
                    <mxGeometry width="50" height="50" relative="1" as="geometry">
                        <mxPoint x="799" y="286" as="sourcePoint"/>
                        <mxPoint x="849" y="236" as="targetPoint"/>
                    </mxGeometry>
                </mxCell>
                <mxCell id="g_UKhMV2bHVW6zAszu1t-62" value="Node" style="ellipse;shape=cloud;whiteSpace=wrap;html=1;fontColor=#000000;strokeColor=#000000;fillColor=#99FF99;" parent="1" vertex="1">
                    <mxGeometry x="165" y="396" width="68" height="50" as="geometry"/>
                </mxCell>
                <mxCell id="g_UKhMV2bHVW6zAszu1t-59" value="" style="endArrow=classic;html=1;rounded=0;fontColor=#000000;exitX=1;exitY=0.15;exitDx=0;exitDy=0;exitPerimeter=0;entryX=0.5;entryY=1;entryDx=0;entryDy=0;" parent="1" source="g_UKhMV2bHVW6zAszu1t-48" target="g_UKhMV2bHVW6zAszu1t-54" edge="1">
                    <mxGeometry width="50" height="50" relative="1" as="geometry">
                        <mxPoint x="799" y="286" as="sourcePoint"/>
                        <mxPoint x="849" y="236" as="targetPoint"/>
                    </mxGeometry>
                </mxCell>
                <mxCell id="g_UKhMV2bHVW6zAszu1t-37" value="POST" style="ellipse;whiteSpace=wrap;html=1;align=center;fillColor=#fff2cc;strokeColor=#d6b656;fontStyle=1" parent="1" vertex="1">
                    <mxGeometry x="111" y="431" width="100" height="40" as="geometry"/>
                </mxCell>
                <mxCell id="g_UKhMV2bHVW6zAszu1t-64" value="" style="endArrow=classic;startArrow=classic;html=1;rounded=0;fontColor=#000000;entryX=0;entryY=0.5;entryDx=0;entryDy=0;" parent="1" target="g_UKhMV2bHVW6zAszu1t-37" edge="1">
                    <mxGeometry width="50" height="50" relative="1" as="geometry">
                        <mxPoint x="-75" y="404" as="sourcePoint"/>
                        <mxPoint x="849" y="236" as="targetPoint"/>
                    </mxGeometry>
                </mxCell>
                <mxCell id="g_UKhMV2bHVW6zAszu1t-65" value="&lt;span style=&quot;border-bottom: 1px dotted&quot;&gt;GET jobs&lt;/span&gt;" style="ellipse;whiteSpace=wrap;html=1;align=center;fillColor=#d5e8d4;strokeColor=#82b366;fontStyle=1" parent="1" vertex="1">
                    <mxGeometry x="116" y="513" width="100" height="40" as="geometry"/>
                </mxCell>
                <mxCell id="g_UKhMV2bHVW6zAszu1t-67" value="" style="endArrow=classic;startArrow=classic;html=1;rounded=0;fontColor=#000000;exitX=0.617;exitY=0.983;exitDx=0;exitDy=0;exitPerimeter=0;entryX=0;entryY=0.5;entryDx=0;entryDy=0;" parent="1" source="g_UKhMV2bHVW6zAszu1t-48" target="g_UKhMV2bHVW6zAszu1t-65" edge="1">
                    <mxGeometry width="50" height="50" relative="1" as="geometry">
                        <mxPoint x="799" y="493" as="sourcePoint"/>
                        <mxPoint x="849" y="443" as="targetPoint"/>
                    </mxGeometry>
                </mxCell>
                <mxCell id="g_UKhMV2bHVW6zAszu1t-68" value="" style="endArrow=classic;html=1;rounded=0;fontColor=#000000;exitX=1;exitY=0.5;exitDx=0;exitDy=0;entryX=0;entryY=0.5;entryDx=0;entryDy=0;" parent="1" source="g_UKhMV2bHVW6zAszu1t-65" target="g_UKhMV2bHVW6zAszu1t-27" edge="1">
                    <mxGeometry width="50" height="50" relative="1" as="geometry">
                        <mxPoint x="799" y="493" as="sourcePoint"/>
                        <mxPoint x="849" y="443" as="targetPoint"/>
                    </mxGeometry>
                </mxCell>
                <mxCell id="g_UKhMV2bHVW6zAszu1t-69" value="&lt;span style=&quot;border-bottom: 1px dotted&quot;&gt;GET locations&lt;/span&gt;" style="ellipse;whiteSpace=wrap;html=1;align=center;fillColor=#d5e8d4;strokeColor=#82b366;fontStyle=1" parent="1" vertex="1">
                    <mxGeometry x="114" y="585" width="100" height="40" as="geometry"/>
                </mxCell>
                <mxCell id="g_UKhMV2bHVW6zAszu1t-71" value="" style="endArrow=classic;startArrow=classic;html=1;rounded=0;fontColor=#000000;entryX=0.65;entryY=1.017;entryDx=0;entryDy=0;entryPerimeter=0;exitX=0.31;exitY=0.8;exitDx=0;exitDy=0;exitPerimeter=0;" parent="1" source="g_UKhMV2bHVW6zAszu1t-70" target="g_UKhMV2bHVW6zAszu1t-48" edge="1">
                    <mxGeometry width="50" height="50" relative="1" as="geometry">
                        <mxPoint x="799" y="493" as="sourcePoint"/>
                        <mxPoint x="849" y="443" as="targetPoint"/>
                    </mxGeometry>
                </mxCell>
                <mxCell id="g_UKhMV2bHVW6zAszu1t-72" value="" style="endArrow=classic;html=1;rounded=0;fontColor=#000000;exitX=1;exitY=0.5;exitDx=0;exitDy=0;entryX=0;entryY=0.5;entryDx=0;entryDy=0;" parent="1" source="g_UKhMV2bHVW6zAszu1t-69" target="g_UKhMV2bHVW6zAszu1t-19" edge="1">
                    <mxGeometry width="50" height="50" relative="1" as="geometry">
                        <mxPoint x="799" y="493" as="sourcePoint"/>
                        <mxPoint x="849" y="443" as="targetPoint"/>
                    </mxGeometry>
                </mxCell>
                <mxCell id="g_UKhMV2bHVW6zAszu1t-92" value="Graduation" style="swimlane;fontStyle=1;childLayout=stackLayout;horizontal=1;startSize=26;horizontalStack=0;resizeParent=1;resizeParentMax=0;resizeLast=0;collapsible=1;marginBottom=0;align=center;fontSize=14;fillColor=#e1d5e7;strokeColor=#9673a6;" parent="1" vertex="1">
                    <mxGeometry x="819" y="98" width="160" height="236" as="geometry"/>
                </mxCell>
                <mxCell id="g_UKhMV2bHVW6zAszu1t-94" value="StartDate" style="text;strokeColor=none;fillColor=none;spacingLeft=4;spacingRight=4;overflow=hidden;rotatable=0;points=[[0,0.5],[1,0.5]];portConstraint=eastwest;fontSize=12;" parent="g_UKhMV2bHVW6zAszu1t-92" vertex="1">
                    <mxGeometry y="26" width="160" height="30" as="geometry"/>
                </mxCell>
                <mxCell id="g_UKhMV2bHVW6zAszu1t-95" value="EndDate" style="text;strokeColor=none;fillColor=none;spacingLeft=4;spacingRight=4;overflow=hidden;rotatable=0;points=[[0,0.5],[1,0.5]];portConstraint=eastwest;fontSize=12;" parent="g_UKhMV2bHVW6zAszu1t-92" vertex="1">
                    <mxGeometry y="56" width="160" height="30" as="geometry"/>
                </mxCell>
                <mxCell id="g_UKhMV2bHVW6zAszu1t-96" value="Title" style="text;strokeColor=none;fillColor=none;spacingLeft=4;spacingRight=4;overflow=hidden;rotatable=0;points=[[0,0.5],[1,0.5]];portConstraint=eastwest;fontSize=12;" parent="g_UKhMV2bHVW6zAszu1t-92" vertex="1">
                    <mxGeometry y="86" width="160" height="30" as="geometry"/>
                </mxCell>
                <mxCell id="g_UKhMV2bHVW6zAszu1t-97" value="School" style="text;strokeColor=none;fillColor=none;spacingLeft=4;spacingRight=4;overflow=hidden;rotatable=0;points=[[0,0.5],[1,0.5]];portConstraint=eastwest;fontSize=12;" parent="g_UKhMV2bHVW6zAszu1t-92" vertex="1">
                    <mxGeometry y="116" width="160" height="30" as="geometry"/>
                </mxCell>
                <mxCell id="g_UKhMV2bHVW6zAszu1t-98" value="Location" style="text;strokeColor=none;fillColor=none;spacingLeft=4;spacingRight=4;overflow=hidden;rotatable=0;points=[[0,0.5],[1,0.5]];portConstraint=eastwest;fontSize=12;" parent="g_UKhMV2bHVW6zAszu1t-92" vertex="1">
                    <mxGeometry y="146" width="160" height="30" as="geometry"/>
                </mxCell>
                <mxCell id="g_UKhMV2bHVW6zAszu1t-99" value="Description" style="text;strokeColor=none;fillColor=none;spacingLeft=4;spacingRight=4;overflow=hidden;rotatable=0;points=[[0,0.5],[1,0.5]];portConstraint=eastwest;fontSize=12;" parent="g_UKhMV2bHVW6zAszu1t-92" vertex="1">
                    <mxGeometry y="176" width="160" height="30" as="geometry"/>
                </mxCell>
                <mxCell id="g_UKhMV2bHVW6zAszu1t-100" value="#Id_Account" style="text;strokeColor=none;fillColor=none;spacingLeft=4;spacingRight=4;overflow=hidden;rotatable=0;points=[[0,0.5],[1,0.5]];portConstraint=eastwest;fontSize=12;fontStyle=1" parent="g_UKhMV2bHVW6zAszu1t-92" vertex="1">
                    <mxGeometry y="206" width="160" height="30" as="geometry"/>
                </mxCell>
                <mxCell id="g_UKhMV2bHVW6zAszu1t-101" value="Experience" style="swimlane;fontStyle=1;childLayout=stackLayout;horizontal=1;startSize=26;horizontalStack=0;resizeParent=1;resizeParentMax=0;resizeLast=0;collapsible=1;marginBottom=0;align=center;fontSize=14;fillColor=#e1d5e7;strokeColor=#9673a6;" parent="1" vertex="1">
                    <mxGeometry x="816" y="431" width="160" height="236" as="geometry"/>
                </mxCell>
                <mxCell id="g_UKhMV2bHVW6zAszu1t-103" value="Compagny" style="text;strokeColor=none;fillColor=none;spacingLeft=4;spacingRight=4;overflow=hidden;rotatable=0;points=[[0,0.5],[1,0.5]];portConstraint=eastwest;fontSize=12;" parent="g_UKhMV2bHVW6zAszu1t-101" vertex="1">
                    <mxGeometry y="26" width="160" height="30" as="geometry"/>
                </mxCell>
                <mxCell id="g_UKhMV2bHVW6zAszu1t-104" value="StartDate" style="text;strokeColor=none;fillColor=none;spacingLeft=4;spacingRight=4;overflow=hidden;rotatable=0;points=[[0,0.5],[1,0.5]];portConstraint=eastwest;fontSize=12;" parent="g_UKhMV2bHVW6zAszu1t-101" vertex="1">
                    <mxGeometry y="56" width="160" height="30" as="geometry"/>
                </mxCell>
                <mxCell id="g_UKhMV2bHVW6zAszu1t-105" value="EndDate" style="text;strokeColor=none;fillColor=none;spacingLeft=4;spacingRight=4;overflow=hidden;rotatable=0;points=[[0,0.5],[1,0.5]];portConstraint=eastwest;fontSize=12;" parent="g_UKhMV2bHVW6zAszu1t-101" vertex="1">
                    <mxGeometry y="86" width="160" height="30" as="geometry"/>
                </mxCell>
                <mxCell id="g_UKhMV2bHVW6zAszu1t-106" value="Occupation" style="text;strokeColor=none;fillColor=none;spacingLeft=4;spacingRight=4;overflow=hidden;rotatable=0;points=[[0,0.5],[1,0.5]];portConstraint=eastwest;fontSize=12;" parent="g_UKhMV2bHVW6zAszu1t-101" vertex="1">
                    <mxGeometry y="116" width="160" height="30" as="geometry"/>
                </mxCell>
                <mxCell id="g_UKhMV2bHVW6zAszu1t-107" value="Location" style="text;strokeColor=none;fillColor=none;spacingLeft=4;spacingRight=4;overflow=hidden;rotatable=0;points=[[0,0.5],[1,0.5]];portConstraint=eastwest;fontSize=12;" parent="g_UKhMV2bHVW6zAszu1t-101" vertex="1">
                    <mxGeometry y="146" width="160" height="30" as="geometry"/>
                </mxCell>
                <mxCell id="g_UKhMV2bHVW6zAszu1t-108" value="Description" style="text;strokeColor=none;fillColor=none;spacingLeft=4;spacingRight=4;overflow=hidden;rotatable=0;points=[[0,0.5],[1,0.5]];portConstraint=eastwest;fontSize=12;" parent="g_UKhMV2bHVW6zAszu1t-101" vertex="1">
                    <mxGeometry y="176" width="160" height="30" as="geometry"/>
                </mxCell>
                <mxCell id="g_UKhMV2bHVW6zAszu1t-109" value="#Id_Account" style="text;strokeColor=none;fillColor=none;spacingLeft=4;spacingRight=4;overflow=hidden;rotatable=0;points=[[0,0.5],[1,0.5]];portConstraint=eastwest;fontSize=12;fontStyle=1" parent="g_UKhMV2bHVW6zAszu1t-101" vertex="1">
                    <mxGeometry y="206" width="160" height="30" as="geometry"/>
                </mxCell>
                <mxCell id="g_UKhMV2bHVW6zAszu1t-115" style="edgeStyle=orthogonalEdgeStyle;rounded=0;orthogonalLoop=1;jettySize=auto;html=1;entryX=0;entryY=0.5;entryDx=0;entryDy=0;fontColor=#000000;" parent="1" source="g_UKhMV2bHVW6zAszu1t-112" target="g_UKhMV2bHVW6zAszu1t-97" edge="1">
                    <mxGeometry relative="1" as="geometry"/>
                </mxCell>
                <mxCell id="g_UKhMV2bHVW6zAszu1t-116" style="edgeStyle=orthogonalEdgeStyle;rounded=0;orthogonalLoop=1;jettySize=auto;html=1;exitX=0.5;exitY=1;exitDx=0;exitDy=0;entryX=0;entryY=0.5;entryDx=0;entryDy=0;fontColor=#000000;" parent="1" source="g_UKhMV2bHVW6zAszu1t-112" target="g_UKhMV2bHVW6zAszu1t-106" edge="1">
                    <mxGeometry relative="1" as="geometry"/>
                </mxCell>
                <mxCell id="21" style="edgeStyle=none;html=1;entryX=0.5;entryY=0;entryDx=0;entryDy=0;" edge="1" parent="1" source="g_UKhMV2bHVW6zAszu1t-112" target="g_UKhMV2bHVW6zAszu1t-119">
                    <mxGeometry relative="1" as="geometry"/>
                </mxCell>
                <mxCell id="g_UKhMV2bHVW6zAszu1t-112" value="POST" style="ellipse;whiteSpace=wrap;html=1;align=center;fillColor=#fff2cc;strokeColor=#d6b656;fontStyle=1" parent="1" vertex="1">
                    <mxGeometry x="621" y="349" width="100" height="40" as="geometry"/>
                </mxCell>
                <mxCell id="g_UKhMV2bHVW6zAszu1t-113" style="edgeStyle=orthogonalEdgeStyle;rounded=0;orthogonalLoop=1;jettySize=auto;html=1;fontColor=#000000;" parent="1" source="g_UKhMV2bHVW6zAszu1t-18" target="g_UKhMV2bHVW6zAszu1t-112" edge="1">
                    <mxGeometry relative="1" as="geometry"/>
                </mxCell>
                <mxCell id="g_UKhMV2bHVW6zAszu1t-117" value="&lt;font color=&quot;#000000&quot;&gt;&lt;b&gt;&lt;u&gt;return idAccount&lt;/u&gt;&lt;/b&gt;&lt;/font&gt;" style="text;html=1;strokeColor=none;fillColor=none;align=center;verticalAlign=middle;whiteSpace=wrap;rounded=0;fontColor=#0000CC;" parent="1" vertex="1">
                    <mxGeometry x="694" y="196.5" width="103" height="39" as="geometry"/>
                </mxCell>
                <mxCell id="g_UKhMV2bHVW6zAszu1t-118" value="&lt;font color=&quot;#000000&quot;&gt;&lt;b&gt;&lt;u&gt;return idAccount&lt;/u&gt;&lt;/b&gt;&lt;/font&gt;" style="text;html=1;strokeColor=none;fillColor=none;align=center;verticalAlign=middle;whiteSpace=wrap;rounded=0;fontColor=#0000CC;" parent="1" vertex="1">
                    <mxGeometry x="694" y="529.5" width="103" height="39" as="geometry"/>
                </mxCell>
                <mxCell id="g_UKhMV2bHVW6zAszu1t-119" value="Job_Expertise" style="swimlane;fontStyle=1;childLayout=stackLayout;horizontal=1;startSize=26;horizontalStack=0;resizeParent=1;resizeParentMax=0;resizeLast=0;collapsible=1;marginBottom=0;align=center;fontSize=14;fillColor=#e1d5e7;strokeColor=#9673a6;" parent="1" vertex="1">
                    <mxGeometry x="485" y="727" width="160" height="116" as="geometry"/>
                </mxCell>
                <mxCell id="g_UKhMV2bHVW6zAszu1t-120" value="Id" style="text;strokeColor=none;fillColor=none;spacingLeft=4;spacingRight=4;overflow=hidden;rotatable=0;points=[[0,0.5],[1,0.5]];portConstraint=eastwest;fontSize=12;" parent="g_UKhMV2bHVW6zAszu1t-119" vertex="1">
                    <mxGeometry y="26" width="160" height="30" as="geometry"/>
                </mxCell>
                <mxCell id="g_UKhMV2bHVW6zAszu1t-121" value="#IdJob" style="text;strokeColor=none;fillColor=none;spacingLeft=4;spacingRight=4;overflow=hidden;rotatable=0;points=[[0,0.5],[1,0.5]];portConstraint=eastwest;fontSize=12;fontStyle=1" parent="g_UKhMV2bHVW6zAszu1t-119" vertex="1">
                    <mxGeometry y="56" width="160" height="30" as="geometry"/>
                </mxCell>
                <mxCell id="g_UKhMV2bHVW6zAszu1t-122" value="#IdExpertise" style="text;strokeColor=none;fillColor=none;spacingLeft=4;spacingRight=4;overflow=hidden;rotatable=0;points=[[0,0.5],[1,0.5]];portConstraint=eastwest;fontSize=12;fontStyle=1" parent="g_UKhMV2bHVW6zAszu1t-119" vertex="1">
                    <mxGeometry y="86" width="160" height="30" as="geometry"/>
                </mxCell>
                <mxCell id="g_UKhMV2bHVW6zAszu1t-123" style="edgeStyle=orthogonalEdgeStyle;rounded=0;orthogonalLoop=1;jettySize=auto;html=1;entryX=0.5;entryY=0;entryDx=0;entryDy=0;fontColor=#000000;" parent="1" source="g_UKhMV2bHVW6zAszu1t-27" target="g_UKhMV2bHVW6zAszu1t-119" edge="1">
                    <mxGeometry relative="1" as="geometry"/>
                </mxCell>
                <mxCell id="g_UKhMV2bHVW6zAszu1t-124" value="&lt;span style=&quot;border-bottom: 1px dotted&quot;&gt;GET jobExpertise&lt;/span&gt;" style="ellipse;whiteSpace=wrap;html=1;align=center;fillColor=#d5e8d4;strokeColor=#82b366;fontStyle=1" parent="1" vertex="1">
                    <mxGeometry x="433" y="585" width="124" height="52" as="geometry"/>
                </mxCell>
                <mxCell id="g_UKhMV2bHVW6zAszu1t-125" value="Select * from job_expertise&lt;br&gt;innerjoin expertise on id_expertise = expertise.id&amp;nbsp;&lt;br&gt;where id job = ?" style="text;html=1;align=center;verticalAlign=middle;whiteSpace=wrap;rounded=0;fontColor=#B3B3B3;fontStyle=2" parent="1" vertex="1">
                    <mxGeometry x="284.5" y="660" width="273.5" height="30" as="geometry"/>
                </mxCell>
                <mxCell id="2" value="Whien user select a job" style="text;html=1;strokeColor=none;fillColor=none;align=center;verticalAlign=middle;whiteSpace=wrap;rounded=0;" vertex="1" parent="1">
                    <mxGeometry x="438" y="545" width="114" height="40" as="geometry"/>
                </mxCell>
                <mxCell id="13" style="edgeStyle=none;html=1;exitX=1;exitY=0;exitDx=0;exitDy=0;entryX=0.5;entryY=1;entryDx=0;entryDy=0;" edge="1" parent="1" source="4" target="12">
                    <mxGeometry relative="1" as="geometry"/>
                </mxCell>
                <mxCell id="4" value="front keeps the selection before entering" style="text;html=1;strokeColor=#666666;fillColor=#f5f5f5;align=center;verticalAlign=middle;whiteSpace=wrap;rounded=0;fontColor=#333333;" vertex="1" parent="1">
                    <mxGeometry x="575" y="866" width="114" height="40" as="geometry"/>
                </mxCell>
                <mxCell id="7" style="edgeStyle=none;html=1;entryX=0;entryY=0;entryDx=0;entryDy=0;" edge="1" parent="1" source="g_UKhMV2bHVW6zAszu1t-121" target="4">
                    <mxGeometry relative="1" as="geometry"/>
                </mxCell>
                <mxCell id="20" value="" style="edgeStyle=none;html=1;" edge="1" parent="1" source="12" target="18">
                    <mxGeometry relative="1" as="geometry"/>
                </mxCell>
                <mxCell id="12" value="POST" style="ellipse;whiteSpace=wrap;html=1;align=center;fillColor=#fff2cc;strokeColor=#d6b656;fontStyle=1" vertex="1" parent="1">
                    <mxGeometry x="675" y="765" width="100" height="40" as="geometry"/>
                </mxCell>
                <mxCell id="15" value="Skill" style="swimlane;fontStyle=1;childLayout=stackLayout;horizontal=1;startSize=26;horizontalStack=0;resizeParent=1;resizeParentMax=0;resizeLast=0;collapsible=1;marginBottom=0;align=center;fontSize=14;fillColor=#e1d5e7;strokeColor=#9673a6;" vertex="1" parent="1">
                    <mxGeometry x="815" y="727" width="160" height="146" as="geometry"/>
                </mxCell>
                <mxCell id="16" value="Id" style="text;strokeColor=none;fillColor=none;spacingLeft=4;spacingRight=4;overflow=hidden;rotatable=0;points=[[0,0.5],[1,0.5]];portConstraint=eastwest;fontSize=12;" vertex="1" parent="15">
                    <mxGeometry y="26" width="160" height="30" as="geometry"/>
                </mxCell>
                <mxCell id="17" value="#IdExpertise" style="text;strokeColor=none;fillColor=none;spacingLeft=4;spacingRight=4;overflow=hidden;rotatable=0;points=[[0,0.5],[1,0.5]];portConstraint=eastwest;fontSize=12;fontStyle=1" vertex="1" parent="15">
                    <mxGeometry y="56" width="160" height="30" as="geometry"/>
                </mxCell>
                <mxCell id="18" value="#IdExpertise_Category" style="text;strokeColor=none;fillColor=none;spacingLeft=4;spacingRight=4;overflow=hidden;rotatable=0;points=[[0,0.5],[1,0.5]];portConstraint=eastwest;fontSize=12;fontStyle=1" vertex="1" parent="15">
                    <mxGeometry y="86" width="160" height="30" as="geometry"/>
                </mxCell>
                <mxCell id="19" value="#IdAccount" style="text;strokeColor=none;fillColor=none;spacingLeft=4;spacingRight=4;overflow=hidden;rotatable=0;points=[[0,0.5],[1,0.5]];portConstraint=eastwest;fontSize=12;fontStyle=1" vertex="1" parent="15">
                    <mxGeometry y="116" width="160" height="30" as="geometry"/>
                </mxCell>
                <mxCell id="22" value="&lt;font color=&quot;#000000&quot;&gt;&lt;b&gt;&lt;u&gt;return idAccount&lt;/u&gt;&lt;/b&gt;&lt;/font&gt;" style="text;html=1;strokeColor=none;fillColor=none;align=center;verticalAlign=middle;whiteSpace=wrap;rounded=0;fontColor=#0000CC;" vertex="1" parent="1">
                    <mxGeometry x="588" y="635" width="103" height="39" as="geometry"/>
                </mxCell>
            </root>
        </mxGraphModel>
    </diagram>
    <diagram id="qXo4DBUOOOp254H-44Gi" name="Parcours inscription client">
        <mxGraphModel dx="1635" dy="1105" grid="0" gridSize="10" guides="1" tooltips="1" connect="1" arrows="1" fold="1" page="0" pageScale="1" pageWidth="827" pageHeight="1169" math="0" shadow="0">
            <root>
                <mxCell id="gXbnTHDnmqOIPbDocxdm-0"/>
                <mxCell id="gXbnTHDnmqOIPbDocxdm-1" parent="gXbnTHDnmqOIPbDocxdm-0"/>
                <mxCell id="tDNTPFxodZim4o-NiV6P-5" value="Node" style="ellipse;shape=cloud;whiteSpace=wrap;html=1;fontColor=#000000;strokeColor=#000000;fillColor=#99FF99;" vertex="1" parent="gXbnTHDnmqOIPbDocxdm-1">
                    <mxGeometry x="762" y="565" width="68" height="50" as="geometry"/>
                </mxCell>
                <mxCell id="hiZJI5fr1D7QhjLIVKyF-1" value="Node" style="ellipse;shape=cloud;whiteSpace=wrap;html=1;fontColor=#000000;strokeColor=#000000;fillColor=#99FF99;" vertex="1" parent="gXbnTHDnmqOIPbDocxdm-1">
                    <mxGeometry x="609" y="320" width="68" height="50" as="geometry"/>
                </mxCell>
                <mxCell id="hiZJI5fr1D7QhjLIVKyF-2" value="Node" style="ellipse;shape=cloud;whiteSpace=wrap;html=1;fontColor=#000000;strokeColor=#000000;fillColor=#99FF99;" vertex="1" parent="gXbnTHDnmqOIPbDocxdm-1">
                    <mxGeometry x="92" y="560" width="68" height="50" as="geometry"/>
                </mxCell>
                <mxCell id="hiZJI5fr1D7QhjLIVKyF-3" value="Node" style="ellipse;shape=cloud;whiteSpace=wrap;html=1;fontColor=#000000;strokeColor=#000000;fillColor=#99FF99;" vertex="1" parent="gXbnTHDnmqOIPbDocxdm-1">
                    <mxGeometry x="108" y="481" width="68" height="50" as="geometry"/>
                </mxCell>
                <mxCell id="hiZJI5fr1D7QhjLIVKyF-4" value="Node" style="ellipse;shape=cloud;whiteSpace=wrap;html=1;fontColor=#000000;strokeColor=#000000;fillColor=#99FF99;" vertex="1" parent="gXbnTHDnmqOIPbDocxdm-1">
                    <mxGeometry x="180" y="187" width="68" height="50" as="geometry"/>
                </mxCell>
                <mxCell id="hiZJI5fr1D7QhjLIVKyF-5" value="Loggin" style="swimlane;fontStyle=0;childLayout=stackLayout;horizontal=1;startSize=26;horizontalStack=0;resizeParent=1;resizeParentMax=0;resizeLast=0;collapsible=1;marginBottom=0;align=center;fontSize=14;fillColor=#e1d5e7;strokeColor=#9673a6;" vertex="1" parent="gXbnTHDnmqOIPbDocxdm-1">
                    <mxGeometry x="82" y="65" width="160" height="116" as="geometry"/>
                </mxCell>
                <mxCell id="hiZJI5fr1D7QhjLIVKyF-6" value="Email" style="text;strokeColor=none;fillColor=none;spacingLeft=4;spacingRight=4;overflow=hidden;rotatable=0;points=[[0,0.5],[1,0.5]];portConstraint=eastwest;fontSize=12;" vertex="1" parent="hiZJI5fr1D7QhjLIVKyF-5">
                    <mxGeometry y="26" width="160" height="30" as="geometry"/>
                </mxCell>
                <mxCell id="hiZJI5fr1D7QhjLIVKyF-7" value="Mot de passe" style="text;strokeColor=none;fillColor=none;spacingLeft=4;spacingRight=4;overflow=hidden;rotatable=0;points=[[0,0.5],[1,0.5]];portConstraint=eastwest;fontSize=12;" vertex="1" parent="hiZJI5fr1D7QhjLIVKyF-5">
                    <mxGeometry y="56" width="160" height="30" as="geometry"/>
                </mxCell>
                <mxCell id="hiZJI5fr1D7QhjLIVKyF-8" value="Type de compte" style="text;strokeColor=none;fillColor=none;spacingLeft=4;spacingRight=4;overflow=hidden;rotatable=0;points=[[0,0.5],[1,0.5]];portConstraint=eastwest;fontSize=12;" vertex="1" parent="hiZJI5fr1D7QhjLIVKyF-5">
                    <mxGeometry y="86" width="160" height="30" as="geometry"/>
                </mxCell>
                <mxCell id="hiZJI5fr1D7QhjLIVKyF-9" value="Account" style="swimlane;fontStyle=0;childLayout=stackLayout;horizontal=1;startSize=26;horizontalStack=0;resizeParent=1;resizeParentMax=0;resizeLast=0;collapsible=1;marginBottom=0;align=center;fontSize=14;fillColor=#e1d5e7;strokeColor=#9673a6;" vertex="1" parent="gXbnTHDnmqOIPbDocxdm-1">
                    <mxGeometry x="382" y="177" width="160" height="326" as="geometry"/>
                </mxCell>
                <mxCell id="hiZJI5fr1D7QhjLIVKyF-10" value="Nom" style="text;strokeColor=none;fillColor=none;spacingLeft=4;spacingRight=4;overflow=hidden;rotatable=0;points=[[0,0.5],[1,0.5]];portConstraint=eastwest;fontSize=12;" vertex="1" parent="hiZJI5fr1D7QhjLIVKyF-9">
                    <mxGeometry y="26" width="160" height="30" as="geometry"/>
                </mxCell>
                <mxCell id="hiZJI5fr1D7QhjLIVKyF-11" value="PrÃ©nom" style="text;strokeColor=none;fillColor=none;spacingLeft=4;spacingRight=4;overflow=hidden;rotatable=0;points=[[0,0.5],[1,0.5]];portConstraint=eastwest;fontSize=12;" vertex="1" parent="hiZJI5fr1D7QhjLIVKyF-9">
                    <mxGeometry y="56" width="160" height="30" as="geometry"/>
                </mxCell>
                <mxCell id="hiZJI5fr1D7QhjLIVKyF-12" value="Photo de profil" style="text;strokeColor=none;fillColor=none;spacingLeft=4;spacingRight=4;overflow=hidden;rotatable=0;points=[[0,0.5],[1,0.5]];portConstraint=eastwest;fontSize=12;" vertex="1" parent="hiZJI5fr1D7QhjLIVKyF-9">
                    <mxGeometry y="86" width="160" height="30" as="geometry"/>
                </mxCell>
                <mxCell id="hiZJI5fr1D7QhjLIVKyF-13" value="A propos" style="text;strokeColor=none;fillColor=none;spacingLeft=4;spacingRight=4;overflow=hidden;rotatable=0;points=[[0,0.5],[1,0.5]];portConstraint=eastwest;fontSize=12;" vertex="1" parent="hiZJI5fr1D7QhjLIVKyF-9">
                    <mxGeometry y="116" width="160" height="30" as="geometry"/>
                </mxCell>
                <mxCell id="hiZJI5fr1D7QhjLIVKyF-14" value="Siren" style="text;strokeColor=none;fillColor=none;spacingLeft=4;spacingRight=4;overflow=hidden;rotatable=0;points=[[0,0.5],[1,0.5]];portConstraint=eastwest;fontSize=12;" vertex="1" parent="hiZJI5fr1D7QhjLIVKyF-9">
                    <mxGeometry y="146" width="160" height="30" as="geometry"/>
                </mxCell>
                <mxCell id="hiZJI5fr1D7QhjLIVKyF-15" value="Moyenne = 0" style="text;strokeColor=none;fillColor=none;spacingLeft=4;spacingRight=4;overflow=hidden;rotatable=0;points=[[0,0.5],[1,0.5]];portConstraint=eastwest;fontSize=12;" vertex="1" parent="hiZJI5fr1D7QhjLIVKyF-9">
                    <mxGeometry y="176" width="160" height="30" as="geometry"/>
                </mxCell>
                <mxCell id="hiZJI5fr1D7QhjLIVKyF-16" value="Prix" style="text;strokeColor=none;fillColor=none;spacingLeft=4;spacingRight=4;overflow=hidden;rotatable=0;points=[[0,0.5],[1,0.5]];portConstraint=eastwest;fontSize=12;fontColor=#000000;" vertex="1" parent="hiZJI5fr1D7QhjLIVKyF-9">
                    <mxGeometry y="206" width="160" height="30" as="geometry"/>
                </mxCell>
                <mxCell id="hiZJI5fr1D7QhjLIVKyF-17" value="Langue" style="text;strokeColor=none;fillColor=none;spacingLeft=4;spacingRight=4;overflow=hidden;rotatable=0;points=[[0,0.5],[1,0.5]];portConstraint=eastwest;fontSize=12;fontColor=#000000;" vertex="1" parent="hiZJI5fr1D7QhjLIVKyF-9">
                    <mxGeometry y="236" width="160" height="30" as="geometry"/>
                </mxCell>
                <mxCell id="hiZJI5fr1D7QhjLIVKyF-18" value="id_loggin" style="text;strokeColor=none;fillColor=none;spacingLeft=4;spacingRight=4;overflow=hidden;rotatable=0;points=[[0,0.5],[1,0.5]];portConstraint=eastwest;fontSize=12;fontColor=#000000;" vertex="1" parent="hiZJI5fr1D7QhjLIVKyF-9">
                    <mxGeometry y="266" width="160" height="30" as="geometry"/>
                </mxCell>
                <mxCell id="hiZJI5fr1D7QhjLIVKyF-19" value="id_location" style="text;strokeColor=none;fillColor=none;spacingLeft=4;spacingRight=4;overflow=hidden;rotatable=0;points=[[0,0.5],[1,0.5]];portConstraint=eastwest;fontSize=12;fontColor=#000000;" vertex="1" parent="hiZJI5fr1D7QhjLIVKyF-9">
                    <mxGeometry y="296" width="160" height="30" as="geometry"/>
                </mxCell>
                <mxCell id="hiZJI5fr1D7QhjLIVKyF-21" style="edgeStyle=orthogonalEdgeStyle;rounded=0;orthogonalLoop=1;jettySize=auto;html=1;fontColor=#FF3333;entryX=0;entryY=0.5;entryDx=0;entryDy=0;" edge="1" parent="gXbnTHDnmqOIPbDocxdm-1" target="hiZJI5fr1D7QhjLIVKyF-18">
                    <mxGeometry relative="1" as="geometry">
                        <mxPoint x="307" y="454" as="targetPoint"/>
                        <mxPoint x="212" y="454" as="sourcePoint"/>
                        <Array as="points">
                            <mxPoint x="212" y="458"/>
                        </Array>
                    </mxGeometry>
                </mxCell>
                <mxCell id="hiZJI5fr1D7QhjLIVKyF-22" value="Page 2" style="ellipse;shape=cloud;whiteSpace=wrap;html=1;align=center;fillColor=#e1d5e7;strokeColor=#9673a6;" vertex="1" parent="gXbnTHDnmqOIPbDocxdm-1">
                    <mxGeometry x="410" y="-10" width="100" height="60" as="geometry"/>
                </mxCell>
                <mxCell id="hiZJI5fr1D7QhjLIVKyF-23" value="required" style="text;strokeColor=none;fillColor=none;spacingLeft=4;spacingRight=4;overflow=hidden;rotatable=0;points=[[0,0.5],[1,0.5]];portConstraint=eastwest;fontSize=12;fontColor=#FF3333;fontStyle=1" vertex="1" parent="gXbnTHDnmqOIPbDocxdm-1">
                    <mxGeometry x="544" y="201" width="65" height="30" as="geometry"/>
                </mxCell>
                <mxCell id="hiZJI5fr1D7QhjLIVKyF-24" value="required" style="text;strokeColor=none;fillColor=none;spacingLeft=4;spacingRight=4;overflow=hidden;rotatable=0;points=[[0,0.5],[1,0.5]];portConstraint=eastwest;fontSize=12;fontColor=#FF3333;fontStyle=1" vertex="1" parent="gXbnTHDnmqOIPbDocxdm-1">
                    <mxGeometry x="544" y="229" width="65" height="30" as="geometry"/>
                </mxCell>
                <mxCell id="hiZJI5fr1D7QhjLIVKyF-25" value="required" style="text;strokeColor=none;fillColor=none;spacingLeft=4;spacingRight=4;overflow=hidden;rotatable=0;points=[[0,0.5],[1,0.5]];portConstraint=eastwest;fontSize=12;fontColor=#FF3333;fontStyle=1" vertex="1" parent="gXbnTHDnmqOIPbDocxdm-1">
                    <mxGeometry x="544" y="383" width="65" height="30" as="geometry"/>
                </mxCell>
                <mxCell id="hiZJI5fr1D7QhjLIVKyF-26" value="required" style="text;strokeColor=none;fillColor=none;spacingLeft=4;spacingRight=4;overflow=hidden;rotatable=0;points=[[0,0.5],[1,0.5]];portConstraint=eastwest;fontSize=12;fontColor=#FF3333;fontStyle=1" vertex="1" parent="gXbnTHDnmqOIPbDocxdm-1">
                    <mxGeometry x="544" y="410" width="65" height="30" as="geometry"/>
                </mxCell>
                <mxCell id="hiZJI5fr1D7QhjLIVKyF-27" style="edgeStyle=orthogonalEdgeStyle;rounded=0;orthogonalLoop=1;jettySize=auto;html=1;exitX=0.96;exitY=0.7;exitDx=0;exitDy=0;exitPerimeter=0;entryX=0.07;entryY=0.4;entryDx=0;entryDy=0;entryPerimeter=0;fontColor=#000000;" edge="1" parent="gXbnTHDnmqOIPbDocxdm-1" source="hiZJI5fr1D7QhjLIVKyF-28" target="hiZJI5fr1D7QhjLIVKyF-22">
                    <mxGeometry relative="1" as="geometry">
                        <Array as="points">
                            <mxPoint x="212" y="14"/>
                        </Array>
                    </mxGeometry>
                </mxCell>
                <mxCell id="hiZJI5fr1D7QhjLIVKyF-28" value="Page 1" style="ellipse;shape=cloud;whiteSpace=wrap;html=1;align=center;fillColor=#e1d5e7;strokeColor=#9673a6;" vertex="1" parent="gXbnTHDnmqOIPbDocxdm-1">
                    <mxGeometry x="116" y="-9" width="100" height="60" as="geometry"/>
                </mxCell>
                <mxCell id="hiZJI5fr1D7QhjLIVKyF-29" value="&lt;span style=&quot;border-bottom: 1px dotted&quot;&gt;GET queryparams&lt;/span&gt;" style="ellipse;whiteSpace=wrap;html=1;align=center;fillColor=#d5e8d4;strokeColor=#82b366;fontStyle=1" vertex="1" parent="gXbnTHDnmqOIPbDocxdm-1">
                    <mxGeometry x="111" y="210" width="100" height="40" as="geometry"/>
                </mxCell>
                <mxCell id="hiZJI5fr1D7QhjLIVKyF-30" value="" style="endArrow=classic;html=1;rounded=0;fontColor=#0000CC;exitX=0.494;exitY=1;exitDx=0;exitDy=0;exitPerimeter=0;entryX=0.5;entryY=0;entryDx=0;entryDy=0;" edge="1" parent="gXbnTHDnmqOIPbDocxdm-1" source="hiZJI5fr1D7QhjLIVKyF-8" target="hiZJI5fr1D7QhjLIVKyF-29">
                    <mxGeometry width="50" height="50" relative="1" as="geometry">
                        <mxPoint x="799" y="302" as="sourcePoint"/>
                        <mxPoint x="849" y="252" as="targetPoint"/>
                    </mxGeometry>
                </mxCell>
                <mxCell id="hiZJI5fr1D7QhjLIVKyF-31" value="" style="endArrow=classic;html=1;rounded=0;fontColor=#0000CC;exitX=0.5;exitY=1;exitDx=0;exitDy=0;entryX=0.5;entryY=0;entryDx=0;entryDy=0;" edge="1" parent="gXbnTHDnmqOIPbDocxdm-1" source="hiZJI5fr1D7QhjLIVKyF-29" target="hiZJI5fr1D7QhjLIVKyF-36">
                    <mxGeometry width="50" height="50" relative="1" as="geometry">
                        <mxPoint x="171.03999999999996" y="191" as="sourcePoint"/>
                        <mxPoint x="161" y="301" as="targetPoint"/>
                    </mxGeometry>
                </mxCell>
                <mxCell id="hiZJI5fr1D7QhjLIVKyF-32" value="" style="endArrow=classic;html=1;rounded=0;fontColor=#0000CC;exitX=0.5;exitY=1;exitDx=0;exitDy=0;entryX=0.5;entryY=0;entryDx=0;entryDy=0;" edge="1" parent="gXbnTHDnmqOIPbDocxdm-1">
                    <mxGeometry width="50" height="50" relative="1" as="geometry">
                        <mxPoint x="161" y="351" as="sourcePoint"/>
                        <mxPoint x="162" y="429" as="targetPoint"/>
                    </mxGeometry>
                </mxCell>
                <mxCell id="hiZJI5fr1D7QhjLIVKyF-33" value="" style="shape=actor;whiteSpace=wrap;html=1;fillColor=#e1d5e7;strokeColor=#9673a6;" vertex="1" parent="gXbnTHDnmqOIPbDocxdm-1">
                    <mxGeometry x="-97" y="93" width="40" height="60" as="geometry"/>
                </mxCell>
                <mxCell id="hiZJI5fr1D7QhjLIVKyF-34" value="" style="shape=singleArrow;whiteSpace=wrap;html=1;fillColor=#000000;strokeColor=#000000;fontColor=#333333;" vertex="1" parent="gXbnTHDnmqOIPbDocxdm-1">
                    <mxGeometry x="-37" y="120.78" width="100" height="18" as="geometry"/>
                </mxCell>
                <mxCell id="hiZJI5fr1D7QhjLIVKyF-35" value="&lt;b&gt;Postgree&lt;/b&gt;" style="strokeWidth=2;html=1;shape=mxgraph.flowchart.database;whiteSpace=wrap;fontColor=#333333;fillColor=#f5f5f5;strokeColor=#666666;" vertex="1" parent="gXbnTHDnmqOIPbDocxdm-1">
                    <mxGeometry x="-115" y="312" width="64" height="92" as="geometry"/>
                </mxCell>
                <mxCell id="hiZJI5fr1D7QhjLIVKyF-36" value="&lt;font color=&quot;#000000&quot;&gt;Utilisateur n'existe pas&lt;/font&gt;" style="text;html=1;strokeColor=none;fillColor=none;align=center;verticalAlign=middle;whiteSpace=wrap;rounded=0;fontColor=#0000CC;" vertex="1" parent="gXbnTHDnmqOIPbDocxdm-1">
                    <mxGeometry x="126" y="312" width="70" height="39" as="geometry"/>
                </mxCell>
                <mxCell id="hiZJI5fr1D7QhjLIVKyF-37" value="&lt;font color=&quot;#000000&quot;&gt;Utilisateur existe en base&lt;/font&gt;" style="text;html=1;strokeColor=none;fillColor=none;align=center;verticalAlign=middle;whiteSpace=wrap;rounded=0;fontColor=#0000CC;" vertex="1" parent="gXbnTHDnmqOIPbDocxdm-1">
                    <mxGeometry x="-27" y="210" width="90" height="36" as="geometry"/>
                </mxCell>
                <mxCell id="hiZJI5fr1D7QhjLIVKyF-38" value="" style="endArrow=classic;html=1;rounded=0;fontColor=#000000;exitX=0.5;exitY=0;exitDx=0;exitDy=0;entryX=0;entryY=0.5;entryDx=0;entryDy=0;" edge="1" parent="gXbnTHDnmqOIPbDocxdm-1" source="hiZJI5fr1D7QhjLIVKyF-37" target="hiZJI5fr1D7QhjLIVKyF-7">
                    <mxGeometry width="50" height="50" relative="1" as="geometry">
                        <mxPoint x="799" y="279" as="sourcePoint"/>
                        <mxPoint x="849" y="229" as="targetPoint"/>
                    </mxGeometry>
                </mxCell>
                <mxCell id="hiZJI5fr1D7QhjLIVKyF-39" value="&lt;font color=&quot;#000000&quot;&gt;&lt;b&gt;&lt;u&gt;return idLoggin&lt;/u&gt;&lt;/b&gt;&lt;/font&gt;" style="text;html=1;strokeColor=none;fillColor=none;align=center;verticalAlign=middle;whiteSpace=wrap;rounded=0;fontColor=#0000CC;" vertex="1" parent="gXbnTHDnmqOIPbDocxdm-1">
                    <mxGeometry x="240" y="427" width="92" height="39" as="geometry"/>
                </mxCell>
                <mxCell id="hiZJI5fr1D7QhjLIVKyF-40" value="" style="endArrow=classic;html=1;rounded=0;fontColor=#000000;exitX=0;exitY=1;exitDx=0;exitDy=0;entryX=1;entryY=0.15;entryDx=0;entryDy=0;entryPerimeter=0;" edge="1" parent="gXbnTHDnmqOIPbDocxdm-1" source="hiZJI5fr1D7QhjLIVKyF-29" target="hiZJI5fr1D7QhjLIVKyF-35">
                    <mxGeometry width="50" height="50" relative="1" as="geometry">
                        <mxPoint x="799" y="286" as="sourcePoint"/>
                        <mxPoint x="849" y="236" as="targetPoint"/>
                    </mxGeometry>
                </mxCell>
                <mxCell id="hiZJI5fr1D7QhjLIVKyF-41" value="Node" style="ellipse;shape=cloud;whiteSpace=wrap;html=1;fontColor=#000000;strokeColor=#000000;fillColor=#99FF99;" vertex="1" parent="gXbnTHDnmqOIPbDocxdm-1">
                    <mxGeometry x="165" y="396" width="68" height="50" as="geometry"/>
                </mxCell>
                <mxCell id="hiZJI5fr1D7QhjLIVKyF-42" value="" style="endArrow=classic;html=1;rounded=0;fontColor=#000000;exitX=1;exitY=0.15;exitDx=0;exitDy=0;exitPerimeter=0;entryX=0.5;entryY=1;entryDx=0;entryDy=0;" edge="1" parent="gXbnTHDnmqOIPbDocxdm-1" source="hiZJI5fr1D7QhjLIVKyF-35" target="hiZJI5fr1D7QhjLIVKyF-37">
                    <mxGeometry width="50" height="50" relative="1" as="geometry">
                        <mxPoint x="799" y="286" as="sourcePoint"/>
                        <mxPoint x="849" y="236" as="targetPoint"/>
                    </mxGeometry>
                </mxCell>
                <mxCell id="hiZJI5fr1D7QhjLIVKyF-43" value="POST" style="ellipse;whiteSpace=wrap;html=1;align=center;fillColor=#fff2cc;strokeColor=#d6b656;fontStyle=1" vertex="1" parent="gXbnTHDnmqOIPbDocxdm-1">
                    <mxGeometry x="111" y="431" width="100" height="40" as="geometry"/>
                </mxCell>
                <mxCell id="hiZJI5fr1D7QhjLIVKyF-44" value="" style="endArrow=classic;startArrow=classic;html=1;rounded=0;fontColor=#000000;entryX=0;entryY=0.5;entryDx=0;entryDy=0;" edge="1" parent="gXbnTHDnmqOIPbDocxdm-1" target="hiZJI5fr1D7QhjLIVKyF-43">
                    <mxGeometry width="50" height="50" relative="1" as="geometry">
                        <mxPoint x="-75" y="404" as="sourcePoint"/>
                        <mxPoint x="849" y="236" as="targetPoint"/>
                    </mxGeometry>
                </mxCell>
                <mxCell id="hiZJI5fr1D7QhjLIVKyF-45" value="&lt;span style=&quot;border-bottom: 1px dotted&quot;&gt;GET locations&lt;/span&gt;" style="ellipse;whiteSpace=wrap;html=1;align=center;fillColor=#d5e8d4;strokeColor=#82b366;fontStyle=1" vertex="1" parent="gXbnTHDnmqOIPbDocxdm-1">
                    <mxGeometry x="116" y="513" width="100" height="40" as="geometry"/>
                </mxCell>
                <mxCell id="hiZJI5fr1D7QhjLIVKyF-46" value="" style="endArrow=classic;startArrow=classic;html=1;rounded=0;fontColor=#000000;exitX=0.617;exitY=0.983;exitDx=0;exitDy=0;exitPerimeter=0;entryX=0;entryY=0.5;entryDx=0;entryDy=0;" edge="1" parent="gXbnTHDnmqOIPbDocxdm-1" source="hiZJI5fr1D7QhjLIVKyF-35" target="hiZJI5fr1D7QhjLIVKyF-45">
                    <mxGeometry width="50" height="50" relative="1" as="geometry">
                        <mxPoint x="799" y="493" as="sourcePoint"/>
                        <mxPoint x="849" y="443" as="targetPoint"/>
                    </mxGeometry>
                </mxCell>
                <mxCell id="hiZJI5fr1D7QhjLIVKyF-47" value="" style="endArrow=classic;html=1;rounded=0;fontColor=#000000;exitX=1;exitY=0.5;exitDx=0;exitDy=0;entryX=0;entryY=0.5;entryDx=0;entryDy=0;" edge="1" parent="gXbnTHDnmqOIPbDocxdm-1" source="hiZJI5fr1D7QhjLIVKyF-45" target="hiZJI5fr1D7QhjLIVKyF-19">
                    <mxGeometry width="50" height="50" relative="1" as="geometry">
                        <mxPoint x="799" y="493" as="sourcePoint"/>
                        <mxPoint x="849" y="443" as="targetPoint"/>
                    </mxGeometry>
                </mxCell>
                <mxCell id="IcpNtudtosAA3cFt_6ML-3" style="edgeStyle=none;html=1;exitX=1;exitY=0.5;exitDx=0;exitDy=0;" edge="1" parent="gXbnTHDnmqOIPbDocxdm-1" source="hiZJI5fr1D7QhjLIVKyF-48" target="IcpNtudtosAA3cFt_6ML-2">
                    <mxGeometry relative="1" as="geometry"/>
                </mxCell>
                <mxCell id="hiZJI5fr1D7QhjLIVKyF-48" value="&lt;span style=&quot;border-bottom: 1px dotted&quot;&gt;GET jobs&lt;/span&gt;" style="ellipse;whiteSpace=wrap;html=1;align=center;fillColor=#d5e8d4;strokeColor=#82b366;fontStyle=1" vertex="1" parent="gXbnTHDnmqOIPbDocxdm-1">
                    <mxGeometry x="114" y="585" width="100" height="40" as="geometry"/>
                </mxCell>
                <mxCell id="hiZJI5fr1D7QhjLIVKyF-49" value="" style="endArrow=classic;startArrow=classic;html=1;rounded=0;fontColor=#000000;entryX=0.65;entryY=1.017;entryDx=0;entryDy=0;entryPerimeter=0;exitX=0.31;exitY=0.8;exitDx=0;exitDy=0;exitPerimeter=0;" edge="1" parent="gXbnTHDnmqOIPbDocxdm-1" source="hiZJI5fr1D7QhjLIVKyF-2" target="hiZJI5fr1D7QhjLIVKyF-35">
                    <mxGeometry width="50" height="50" relative="1" as="geometry">
                        <mxPoint x="799" y="493" as="sourcePoint"/>
                        <mxPoint x="849" y="443" as="targetPoint"/>
                    </mxGeometry>
                </mxCell>
                <mxCell id="tDNTPFxodZim4o-NiV6P-1" style="edgeStyle=none;html=1;exitX=0.5;exitY=1;exitDx=0;exitDy=0;" edge="1" parent="gXbnTHDnmqOIPbDocxdm-1" source="hiZJI5fr1D7QhjLIVKyF-70" target="tDNTPFxodZim4o-NiV6P-0">
                    <mxGeometry relative="1" as="geometry"/>
                </mxCell>
                <mxCell id="hiZJI5fr1D7QhjLIVKyF-70" value="POST" style="ellipse;whiteSpace=wrap;html=1;align=center;fillColor=#fff2cc;strokeColor=#d6b656;fontStyle=1" vertex="1" parent="gXbnTHDnmqOIPbDocxdm-1">
                    <mxGeometry x="621" y="349" width="100" height="40" as="geometry"/>
                </mxCell>
                <mxCell id="hiZJI5fr1D7QhjLIVKyF-71" style="edgeStyle=orthogonalEdgeStyle;rounded=0;orthogonalLoop=1;jettySize=auto;html=1;fontColor=#000000;" edge="1" parent="gXbnTHDnmqOIPbDocxdm-1" source="hiZJI5fr1D7QhjLIVKyF-15" target="hiZJI5fr1D7QhjLIVKyF-70">
                    <mxGeometry relative="1" as="geometry"/>
                </mxCell>
                <mxCell id="hiZJI5fr1D7QhjLIVKyF-73" value="&lt;font color=&quot;#000000&quot;&gt;&lt;b&gt;&lt;u&gt;return idAccount&lt;/u&gt;&lt;/b&gt;&lt;/font&gt;" style="text;html=1;strokeColor=none;fillColor=none;align=center;verticalAlign=middle;whiteSpace=wrap;rounded=0;fontColor=#0000CC;" vertex="1" parent="gXbnTHDnmqOIPbDocxdm-1">
                    <mxGeometry x="687" y="471" width="103" height="39" as="geometry"/>
                </mxCell>
                <mxCell id="1PIfJIyUYV4oo-_4RgCo-0" value="Favorite_jobs" style="swimlane;fontStyle=1;childLayout=stackLayout;horizontal=1;startSize=26;horizontalStack=0;resizeParent=1;resizeParentMax=0;resizeLast=0;collapsible=1;marginBottom=0;align=center;fontSize=14;fillColor=#e1d5e7;strokeColor=#9673a6;" vertex="1" parent="gXbnTHDnmqOIPbDocxdm-1">
                    <mxGeometry x="948" y="543" width="160" height="116" as="geometry"/>
                </mxCell>
                <mxCell id="1PIfJIyUYV4oo-_4RgCo-1" value="Id" style="text;strokeColor=none;fillColor=none;spacingLeft=4;spacingRight=4;overflow=hidden;rotatable=0;points=[[0,0.5],[1,0.5]];portConstraint=eastwest;fontSize=12;" vertex="1" parent="1PIfJIyUYV4oo-_4RgCo-0">
                    <mxGeometry y="26" width="160" height="30" as="geometry"/>
                </mxCell>
                <mxCell id="1PIfJIyUYV4oo-_4RgCo-2" value="#IdJob" style="text;strokeColor=none;fillColor=none;spacingLeft=4;spacingRight=4;overflow=hidden;rotatable=0;points=[[0,0.5],[1,0.5]];portConstraint=eastwest;fontSize=12;fontStyle=1" vertex="1" parent="1PIfJIyUYV4oo-_4RgCo-0">
                    <mxGeometry y="56" width="160" height="30" as="geometry"/>
                </mxCell>
                <mxCell id="1PIfJIyUYV4oo-_4RgCo-3" value="#Id_Account" style="text;strokeColor=none;fillColor=none;spacingLeft=4;spacingRight=4;overflow=hidden;rotatable=0;points=[[0,0.5],[1,0.5]];portConstraint=eastwest;fontSize=12;fontStyle=1" vertex="1" parent="1PIfJIyUYV4oo-_4RgCo-0">
                    <mxGeometry y="86" width="160" height="30" as="geometry"/>
                </mxCell>
                <mxCell id="IcpNtudtosAA3cFt_6ML-0" value="Job" style="swimlane;fontStyle=1;childLayout=stackLayout;horizontal=1;startSize=26;horizontalStack=0;resizeParent=1;resizeParentMax=0;resizeLast=0;collapsible=1;marginBottom=0;align=center;fontSize=14;fillColor=#b1ddf0;strokeColor=#10739e;" vertex="1" parent="gXbnTHDnmqOIPbDocxdm-1">
                    <mxGeometry x="376" y="567" width="160" height="86" as="geometry"/>
                </mxCell>
                <mxCell id="IcpNtudtosAA3cFt_6ML-1" value="Id" style="text;strokeColor=none;fillColor=none;spacingLeft=4;spacingRight=4;overflow=hidden;rotatable=0;points=[[0,0.5],[1,0.5]];portConstraint=eastwest;fontSize=12;" vertex="1" parent="IcpNtudtosAA3cFt_6ML-0">
                    <mxGeometry y="26" width="160" height="30" as="geometry"/>
                </mxCell>
                <mxCell id="IcpNtudtosAA3cFt_6ML-2" value="Name" style="text;strokeColor=none;fillColor=none;spacingLeft=4;spacingRight=4;overflow=hidden;rotatable=0;points=[[0,0.5],[1,0.5]];portConstraint=eastwest;fontSize=12;" vertex="1" parent="IcpNtudtosAA3cFt_6ML-0">
                    <mxGeometry y="56" width="160" height="30" as="geometry"/>
                </mxCell>
                <mxCell id="tDNTPFxodZim4o-NiV6P-6" style="edgeStyle=none;html=1;exitX=1;exitY=0.5;exitDx=0;exitDy=0;entryX=0;entryY=0.5;entryDx=0;entryDy=0;" edge="1" parent="gXbnTHDnmqOIPbDocxdm-1" source="tDNTPFxodZim4o-NiV6P-0" target="tDNTPFxodZim4o-NiV6P-4">
                    <mxGeometry relative="1" as="geometry"/>
                </mxCell>
                <mxCell id="tDNTPFxodZim4o-NiV6P-0" value="front keeps the selection before entering" style="text;html=1;strokeColor=#666666;fillColor=#f5f5f5;align=center;verticalAlign=middle;whiteSpace=wrap;rounded=0;fontColor=#333333;" vertex="1" parent="gXbnTHDnmqOIPbDocxdm-1">
                    <mxGeometry x="614" y="594" width="114" height="40" as="geometry"/>
                </mxCell>
                <mxCell id="tDNTPFxodZim4o-NiV6P-2" style="edgeStyle=none;html=1;entryX=0;entryY=0.5;entryDx=0;entryDy=0;" edge="1" parent="gXbnTHDnmqOIPbDocxdm-1" source="IcpNtudtosAA3cFt_6ML-1" target="tDNTPFxodZim4o-NiV6P-0">
                    <mxGeometry relative="1" as="geometry"/>
                </mxCell>
                <mxCell id="tDNTPFxodZim4o-NiV6P-7" style="edgeStyle=none;html=1;exitX=1;exitY=0.5;exitDx=0;exitDy=0;entryX=0;entryY=0.5;entryDx=0;entryDy=0;" edge="1" parent="gXbnTHDnmqOIPbDocxdm-1" source="tDNTPFxodZim4o-NiV6P-4" target="1PIfJIyUYV4oo-_4RgCo-2">
                    <mxGeometry relative="1" as="geometry"/>
                </mxCell>
                <mxCell id="tDNTPFxodZim4o-NiV6P-4" value="POST" style="ellipse;whiteSpace=wrap;html=1;align=center;fillColor=#fff2cc;strokeColor=#d6b656;fontStyle=1" vertex="1" parent="gXbnTHDnmqOIPbDocxdm-1">
                    <mxGeometry x="788" y="594" width="100" height="40" as="geometry"/>
                </mxCell>
            </root>
        </mxGraphModel>
    </diagram>
</mxfile>